<svg width="24" height="24" viewBox="0 0 24 24" fill="none" xmlns="http://www.w3.org/2000/svg">
<g clip-path="url(#clip0_55_1629)">
<path d="M3.0816 0.00146484H20.9198C22.6146 0.00146484 24 1.38738 24 3.0821V20.9203C24 22.6146 22.6146 23.9995 20.9198 23.9995H3.0816C1.38688 23.9995 0 22.6145 0 20.9203V3.0821C0 1.38738 1.38688 0.00146484 3.0816 0.00146484ZM17.4837 2.66682C16.8886 2.66682 16.4033 3.1541 16.4033 3.74882V6.33394C16.4033 6.9289 16.8886 7.41506 17.4837 7.41506H20.1959C20.79 7.41506 21.2764 6.9289 21.2764 6.33394V3.74882C21.2764 3.1541 20.79 2.66682 20.1959 2.66682H17.4837ZM21.2867 10.1499H19.175C19.3753 10.8039 19.4838 11.4936 19.4838 12.2107C19.4838 16.2012 16.1426 19.4379 12.0226 19.4379C7.9036 19.4379 4.56224 16.2012 4.56224 12.2107C4.56224 11.4936 4.67184 10.8039 4.87112 10.1499H2.668V20.2885C2.668 20.8135 3.09672 21.2407 3.62128 21.2407H20.3338C20.8589 21.2407 21.2867 20.8135 21.2867 20.2885V10.1499ZM12.0226 7.27874C9.36184 7.27874 7.20344 9.36899 7.20344 11.9498C7.20344 14.5279 9.36184 16.6198 12.0226 16.6198C14.6849 16.6198 16.8434 14.5279 16.8434 11.9498C16.8434 9.36891 14.6849 7.27874 12.0226 7.27874Z" fill="#2BA4A4"/>
</g>
<defs>
<clipPath id="clip0_55_1629">
<rect width="24" height="24" fill="white"/>
</clipPath>
</defs>
</svg>
