<svg width="175" height="48" viewBox="0 0 175 48" fill="none" xmlns="http://www.w3.org/2000/svg">
<path d="M104.789 17H103.18L97.8984 11.2109V17H96.5703V5.57812H97.8984V11.1094L103.047 5.57812H104.57L99.5156 11.125L104.789 17ZM108.943 5.57812H110.185V11.9297C110.185 13.1016 110.149 14.1615 110.076 15.1094H110.138L116.544 5.57812H117.997V17H116.747V10.7109C116.747 9.66406 116.792 8.5651 116.88 7.41406H116.81L110.396 17H108.943V5.57812ZM130.932 8.90625C130.932 10.0625 130.537 10.9531 129.745 11.5781C128.959 12.1979 127.831 12.5078 126.362 12.5078H125.018V17H123.69V5.57812H126.651C129.505 5.57812 130.932 6.6875 130.932 8.90625ZM125.018 11.3672H126.214C127.391 11.3672 128.242 11.1771 128.768 10.7969C129.294 10.4167 129.557 9.80729 129.557 8.96875C129.557 8.21354 129.31 7.65104 128.815 7.28125C128.321 6.91146 127.55 6.72656 126.503 6.72656H125.018V11.3672ZM144.414 17H143.086V6.75781H137.219V17H135.891V5.57812H144.414V17ZM150.138 5.57812H151.381V11.9297C151.381 13.1016 151.344 14.1615 151.271 15.1094H151.334L157.74 5.57812H159.193V17H157.943V10.7109C157.943 9.66406 157.987 8.5651 158.076 7.41406H158.006L151.592 17H150.138V5.57812ZM172.87 17H171.542V12.2812C170.766 12.5573 170.12 12.7474 169.605 12.8516C169.089 12.9505 168.555 13 168.003 13C166.925 13 166.094 12.7526 165.511 12.2578C164.933 11.763 164.644 11.0495 164.644 10.1172V5.57812H165.972V9.96094C165.972 10.5911 166.136 11.0573 166.464 11.3594C166.797 11.6615 167.336 11.8125 168.081 11.8125C168.586 11.8125 169.068 11.776 169.527 11.7031C169.99 11.625 170.662 11.4427 171.542 11.1562V5.57812H172.87V17Z" fill="#DDDDDD"/>
<path d="M100.571 35.2637C99.6325 35.2637 98.8942 35.5964 98.3564 36.2617C97.8187 36.9271 97.5498 37.8454 97.5498 39.0166C97.5498 40.2425 97.8073 41.1699 98.3223 41.7988C98.8418 42.4277 99.5915 42.7422 100.571 42.7422C100.995 42.7422 101.405 42.7012 101.802 42.6191C102.198 42.5326 102.611 42.4232 103.039 42.291V43.6924C102.255 43.9886 101.367 44.1367 100.373 44.1367C98.9102 44.1367 97.7868 43.6947 97.0029 42.8105C96.2191 41.9219 95.8271 40.6527 95.8271 39.0029C95.8271 37.9639 96.0163 37.0547 96.3945 36.2754C96.7773 35.4961 97.3288 34.8991 98.0488 34.4844C98.7689 34.0697 99.6143 33.8623 100.585 33.8623C101.606 33.8623 102.549 34.0765 103.415 34.5049L102.827 35.8652C102.49 35.7057 102.132 35.5667 101.754 35.4482C101.38 35.3252 100.986 35.2637 100.571 35.2637ZM115.746 44H110.092V34.0059H115.746V35.3867H111.726V38.1074H115.493V39.4746H111.726V42.6123H115.746V44ZM129.43 37.0273C129.43 38.071 129.088 38.8708 128.404 39.4268C127.721 39.9827 126.748 40.2607 125.486 40.2607H124.446V44H122.813V34.0059H125.691C126.939 34.0059 127.874 34.2611 128.493 34.7715C129.118 35.2819 129.43 36.0339 129.43 37.0273ZM124.446 38.8867H125.315C126.153 38.8867 126.768 38.7409 127.16 38.4492C127.552 38.1576 127.748 37.7018 127.748 37.082C127.748 36.5078 127.573 36.0794 127.222 35.7969C126.871 35.5143 126.324 35.373 125.581 35.373H124.446V38.8867ZM136.326 34.0059H139.293C140.669 34.0059 141.663 34.2064 142.273 34.6074C142.888 35.0085 143.196 35.6419 143.196 36.5078C143.196 37.0911 143.046 37.5765 142.745 37.9639C142.444 38.3512 142.011 38.5951 141.446 38.6953V38.7637C142.148 38.8958 142.663 39.1579 142.991 39.5498C143.324 39.9372 143.49 40.4635 143.49 41.1289C143.49 42.0267 143.176 42.7308 142.547 43.2412C141.922 43.7471 141.052 44 139.935 44H136.326V34.0059ZM137.96 38.1348H139.532C140.216 38.1348 140.715 38.0277 141.029 37.8135C141.344 37.5947 141.501 37.2256 141.501 36.7061C141.501 36.2367 141.33 35.8971 140.988 35.6875C140.651 35.4779 140.113 35.373 139.375 35.373H137.96V38.1348ZM137.96 39.4609V42.626H139.696C140.38 42.626 140.895 42.4961 141.241 42.2363C141.592 41.972 141.767 41.5573 141.767 40.9922C141.767 40.4727 141.59 40.0876 141.234 39.8369C140.879 39.5863 140.339 39.4609 139.614 39.4609H137.96ZM150.468 34.0059H151.965V39.2012C151.965 39.7435 151.952 40.2926 151.924 40.8486C151.897 41.4001 151.876 41.7738 151.863 41.9697H151.924L157.031 34.0059H158.938V44H157.434V38.8457C157.434 38.0573 157.477 37.1003 157.564 35.9746H157.509L152.382 44H150.468V34.0059ZM170.708 35.2637C169.769 35.2637 169.031 35.5964 168.493 36.2617C167.955 36.9271 167.687 37.8454 167.687 39.0166C167.687 40.2425 167.944 41.1699 168.459 41.7988C168.979 42.4277 169.728 42.7422 170.708 42.7422C171.132 42.7422 171.542 42.7012 171.938 42.6191C172.335 42.5326 172.747 42.4232 173.176 42.291V43.6924C172.392 43.9886 171.503 44.1367 170.51 44.1367C169.047 44.1367 167.924 43.6947 167.14 42.8105C166.356 41.9219 165.964 40.6527 165.964 39.0029C165.964 37.9639 166.153 37.0547 166.531 36.2754C166.914 35.4961 167.465 34.8991 168.186 34.4844C168.906 34.0697 169.751 33.8623 170.722 33.8623C171.743 33.8623 172.686 34.0765 173.552 34.5049L172.964 35.8652C172.627 35.7057 172.269 35.5667 171.891 35.4482C171.517 35.3252 171.123 35.2637 170.708 35.2637Z" fill="#DDDDDD"/>
<rect width="20" height="14.8571" fill="#DD2729"/>
<rect x="22" width="36" height="10.2857" fill="#DD2729"/>
<rect x="22" y="36.5715" width="36" height="11.4286" fill="#DD2729"/>
<rect y="17.1428" width="35" height="12.5714" fill="#DD2729"/>
<rect x="45" y="17.1428" width="35" height="12.5714" fill="#DD2729"/>
<rect x="60" width="20" height="14.8571" fill="#DD2729"/>
<rect x="60" y="32" width="20" height="16" fill="#DD2729"/>
<rect y="32" width="20" height="16" fill="#DD2729"/>
<line x1="95" y1="24.5" x2="175" y2="24.5" stroke="#F74D4F"/>
</svg>
