<svg width="24" height="24" viewBox="0 0 24 24" fill="none" xmlns="http://www.w3.org/2000/svg">
<g clip-path="url(#clip0_55_1622)">
<path d="M4.72098 12.8811C4.10798 14.0861 4.80398 14.6621 6.39198 15.6461C7.74198 16.4801 9.60698 16.7851 10.805 16.9071C10.314 17.3791 12.564 15.2151 6.08398 21.4481C4.70998 22.7651 6.92198 24.8781 8.29498 23.5891L12.012 20.0041C13.435 21.3731 14.799 22.6851 15.729 23.5941C17.103 24.8881 19.314 22.7931 17.955 21.4531C17.853 21.3561 12.918 16.6221 13.219 16.9121C14.432 16.7901 16.269 16.4671 17.603 15.6511L17.602 15.6501C19.19 14.6611 19.886 14.0861 19.282 12.8811C18.917 12.1971 17.933 11.6251 16.623 12.6141C16.623 12.6141 14.854 13.9691 12.001 13.9691C9.14698 13.9691 7.37898 12.6141 7.37898 12.6141C6.06998 11.6201 5.08198 12.1971 4.72098 12.8811Z" fill="#8A8A8A"/>
<path d="M11.9989 12.142C15.4769 12.142 18.3169 9.424 18.3169 6.078C18.3169 2.718 15.4769 0 11.9989 0C8.51993 0 5.67993 2.718 5.67993 6.078C5.67993 9.424 8.51993 12.142 11.9989 12.142ZM11.9989 3.079C13.7079 3.079 15.1019 4.42 15.1019 6.078C15.1019 7.722 13.7079 9.063 11.9989 9.063C10.2899 9.063 8.89593 7.722 8.89593 6.078C8.89493 4.419 10.2889 3.079 11.9989 3.079Z" fill="#8A8A8A"/>
</g>
<defs>
<clipPath id="clip0_55_1622">
<rect width="24" height="24" fill="white"/>
</clipPath>
</defs>
</svg>
