<svg width="24" height="24" viewBox="0 0 24 24" fill="none" xmlns="http://www.w3.org/2000/svg">
<path d="M23.3405 4.55383C22.8955 4.04553 22.2612 3.76556 21.5546 3.76556H4.47199L4.30005 2.4765C4.11475 1.08783 3.14795 0 2.09894 0H0.84375C0.455383 0 0.140625 0.314758 0.140625 0.703125C0.140625 1.09149 0.455383 1.40625 0.84375 1.40625H2.09894C2.32452 1.40625 2.80225 1.88324 2.90607 2.66235L4.91876 17.7579C5.00739 18.4233 5.34924 19.0463 5.88135 19.5121C6.27594 19.8576 6.74231 20.0874 7.23084 20.1835C7.0318 20.5496 6.91864 20.9689 6.91864 21.414C6.91864 22.84 8.0788 24 9.50464 24C10.9305 24 12.0906 22.84 12.0906 21.414C12.0906 20.9892 11.987 20.5884 11.8046 20.2344H15.4891C15.3067 20.5884 15.2031 20.9892 15.2031 21.414C15.2031 22.84 16.3632 24 17.7891 24C19.2149 24 20.3751 22.84 20.3751 21.414C20.3751 20.9892 20.2714 20.5884 20.0891 20.2344H21.9313C22.3195 20.2344 22.6344 19.9195 22.6344 19.5313C22.6344 19.1429 22.3195 18.8282 21.9313 18.8282H7.74738C7.06036 18.8282 6.40338 18.2529 6.31256 17.5719L6.16553 16.4687H11.638C11.6382 16.4687 11.6384 16.4689 11.6386 16.4689C11.6387 16.4689 11.6389 16.4687 11.6393 16.4687H16.1565C16.1567 16.4687 16.1569 16.4689 16.1572 16.4689C16.1574 16.4689 16.1574 16.4687 16.1576 16.4687H20.0484C20.7197 16.4687 21.3823 16.2122 21.9144 15.7465C22.4465 15.2807 22.7884 14.6576 22.877 13.9922L23.8856 6.4281C23.9789 5.72772 23.7854 5.06213 23.3405 4.55383ZM10.6844 21.414C10.6844 22.0646 10.1552 22.5938 9.50464 22.5938C8.85425 22.5938 8.32489 22.0646 8.32489 21.414C8.32489 20.7636 8.85425 20.2344 9.50464 20.2344C10.1552 20.2344 10.6844 20.7636 10.6844 21.414ZM18.9688 21.414C18.9688 22.0646 18.4396 22.5938 17.7891 22.5938C17.1385 22.5938 16.6093 22.0646 16.6093 21.414C16.6093 20.7636 17.1385 20.2344 17.7891 20.2344C18.4396 20.2344 18.9688 20.7636 18.9688 21.414ZM22.2823 5.48016C22.4564 5.67902 22.5308 5.94946 22.4916 6.24207L22.0688 9.414H17.2846L17.5673 5.17181H21.5546C21.85 5.17181 22.1083 5.28131 22.2823 5.48016ZM12.297 15.0624L12.0141 10.8203H15.7815L15.4986 15.0624H12.297ZM11.9204 9.414L11.6376 5.17181H16.158L15.8752 9.414H11.9204ZM10.2283 5.17181L10.511 9.414H5.22492L4.6593 5.17181H10.2283ZM5.41242 10.8203H10.6047L10.8876 15.0624H5.97803L5.41242 10.8203ZM20.0484 15.0624H16.908L17.1909 10.8203H21.8813L21.4832 13.8063C21.3924 14.4873 20.7352 15.0624 20.0484 15.0624Z" fill="white"/>
</svg>
