<svg width="384" height="396" viewBox="0 0 384 396" fill="none" xmlns="http://www.w3.org/2000/svg">
<path d="M375.2 207.2C380 207.2 384 203.2 384 198.4V104C384 99.2 380 95.2 375.2 95.2H292.8V8.8C292.8 4 288.8 0 284 0H100.8H8.8C4 0 0 4 0 8.8V103.2V198.4V292.8V387.2C0 392 4 396 8.8 396H192H375.2C380 396 384 392 384 387.2V292.8C384 288 380 284 375.2 284H292.8V207.2H375.2ZM109.6 17.6H274.4V94.4H192H109.6V17.6ZM17.6 17.6H91.2V94.4H17.6V17.6ZM17.6 112.8H100H182.4V189.6H100.8H17.6V112.8ZM17.6 207.2H91.2V284H17.6V207.2ZM182.4 379.2H17.6V302.4H100H182.4V379.2ZM109.6 284V207.2H192H274.4V284H192H109.6ZM365.6 302.4V379.2H200.8V302.4H283.2H365.6ZM283.2 189.6H200.8V112.8H283.2H365.6V189.6H283.2Z" fill="black"/>
</svg>
